<!-- M 6 1 L 5 1 L 4 2 L 5 5 L 3 5 C 1 5 1 9 3 9 L 4 9 L 3 12 L 6 12 L 7 9 L 8 9 A 1 1 0 0 0 10 12 A 1 1 0 0 0 8 9 L 13 9 A 1 1 0 0 0 15 12 A 1 1 0 0 0 13 9 L 17 9 L 17 8 C 16 6 17 4 18 3 L 18 2 L 15 2 C 13 2 13 4 15 5 L 7 5 L 8 2 L 7 1 L 7 1 L 6 1 -->

<svg xmlns="http://www.w3.org/2000/svg" viewBox="0 0 20 15" width="200" height="150">
  <path d="M 6 1 L 5 1 L 4 2 L 5 5 L 3 5 C 1 5 1 9 3 9 L 4 9 L 3 12 L 6 12 L 7 9 L 8 9 A 1 1 0 0 0 10 12 A 1 1 0 0 0 8 9 L 13 9 A 1 1 0 0 0 15 12 A 1 1 0 0 0 13 9 L 17 9 L 17 8 C 16 6 17 4 18 3 L 18 2 L 15 2 C 13 2 13 4 15 5 L 7 5 L 8 2 L 7 1 L 7 1 L 6 1" fill="black" stroke="none" />
</svg>